**ABCDEFGHIJKLMNOPQRSTUVWXYZabcdefghijklmnopqrstuvwxyz**************************
**PARASOLID !"#$%&'()*+,-./:;<=>?@[\]^_`{|}~0123456789**************************
**PART1;
MC=unknown;
MC_MODEL=unknown;
MC_ID=unknown;
OS=unknown;
OS_RELEASE=unknown;
FRU=sdl_parasolid_customer_support;
APPL=parasolid_acceptance_tests;
SITE=unknown;
USER=unknown;
FORMAT=text;
GUISE=transmit;
KEY=Controls_Plant_1;
FILE=Controls_Plant_1.xmt_txt;
DATE=unknown;
**PART2;
SCH=SCH_2801177_28101;
USFLD_SIZE=1;
**PART3;
**END_OF_HEADER*****************************************************************
T51 : TRANSMIT FILE created by modeller version 280117723 SCH_2801177_28101_1300
6203 0 74 4 CI16 index_map_offset0 0 1 dCCZ3 1 3 0 0 2 3 4 12 33 CCCCCCI4 mesh10
06 0 I8 polyline1008 0 CCCCCCCDI5 owner1040 0 CCCCCCI13 boundary_mesh1006 0 I17
 boundary_polyline1008 0 CCCA16 index_map_offset0 0 1 dA9 index_map82 0 A17 node
_id_index_map82 0 A20 schema_embedding_map82 0 A5 child12 0 A14 lowest_node_id0
 0 1 dZ2 197 5 6 0 0 0 0 0 0 1e3 1e-8 0 7 8 1 0 1 1 9 10 11 0 0 0 12 13 0 0 0 0
 0 0 0 12 3 704 14 15 0 0 0 0 0 0 1e3 1e-8 0 8 4 1 0 1 1 16 17 18 19 0 0 20 21 2
2 0 0 0 0 0 0 12 4 296 23 24 0 0 0 0 0 0 1e3 1e-8 0 3 0 1 0 1 1 25 26 27 28 0 0
 29 30 31 0 0 0 0 0 0 90 255 23 296 0 4 32 0 2 33 70 11 CI9 list_type0 0 1 uI10
 notransmit0 0 1 lCCCDCCDI12 finger_index0 0 1 dI12 finger_block1012 0 CZ24 0 4
 T4 0 0 11 20 1 34 34 13 255 25 94 0 4 0 35 0 0 36 0 51 255 26 93 0 35 37 0 0 -.
2 -223474843926159e-31 .025 0 0 -1 .025 1117374219630794e-31 1 0 31 255 27 139 0
 30 38 0 0 -.2 -223474843926159e-31 0 0 0 1 -1117374219630794e-31 -1 0 .015 29 2
55 28 70 0 39 40 0 .215 -.02 0 19 8 CCCCCCCA5 owner12 0 Z29 28 0 4 36 0 41 V0 16
 255 30 136 42 ?43 0 44 27 0 0 4 18 255 31 25 0 45 0 46 47 ?4 17 255 45 0 48 49
 50 31 51 52 0 53 +18 46 22 0 50 31 54 55 ?4 29 47 27 0 31 55 56 .215 -.02 .025
 29 55 24 0 46 57 47 .215 -.1442 .025 29 56 73 0 58 47 59 .185 -.02 0 18 58 64 0
 60 61 0 56 ?4 29 59 72 0 61 56 40 .185 -.1442 0 18 61 63 0 62 63 58 59 ?4 29 40
 71 0 63 59 28 .215 -.1442 0 18 63 62 0 64 39 61 40 ?4 17 64 0 65 66 67 63 68 69
 0 70 +18 39 61 0 71 72 63 28 ?4 17 71 0 73 53 70 39 74 75 0 76 +18 72 16 0 77 5
4 39 78 ?4 17 77 0 79 80 81 72 82 83 0 49 -18 54 19 0 82 46 72 57 ?4 29 78 18 0
 72 0 57 .185 -.02 .025 29 57 21 0 54 78 55 .185 -.1442 .025 17 82 0 48 50 49 54
 77 83 0 81 +15 255 48 3 0 49 84 0 17 50 0 48 45 82 46 85 86 0 66 +17 49 0 48 82
 45 72 87 88 0 89 +16 83 7 90 ?82 86 88 91 0 0 4 17 81 0 79 77 62 54 67 92 0 85
 -15 79 82 0 62 93 0 17 62 0 79 81 80 61 60 94 0 67 +17 67 0 65 64 85 61 81 92 0
 68 +16 92 76 95 ?67 44 96 97 0 0 4 17 85 0 65 67 66 54 50 86 0 0 -15 65 80 0 64
 98 0 17 66 0 65 85 64 46 70 96 0 51 -16 86 10 99 ?50 52 83 100 0 0 4 81 255 1 9
9 286 101 86 0 0 102 90 103 16 52 13 102 ?45 104 86 105 0 0 4 31 100 11 0 86 91
 105 0 +.2 -.1442 .025 0 0 1 -1117374219630794e-31 -1 0 .015 30 255 91 8 0 83 10
6 100 0 +.185 -.02 .025 0 -1 0 30 105 14 0 52 100 107 0 +.215 -.02 .025 -2793435
54907698e-31 1 0 31 107 69 0 108 105 109 0 +.2 -223474843926159e-31 0 0 0 1 -111
7374219630794e-31 -1 0 .025 16 108 57 110 ?111 94 112 107 0 0 4 30 109 68 0 94 1
07 113 0 +.185 -.02 0 0 -1 0 16 94 53 114 ?62 69 108 109 0 0 4 31 113 67 0 69 10
9 115 0 +.2 -.1442 0 0 0 1 -1117374219630794e-31 -1 0 .015 16 69 49 116 ?64 75 9
4 113 0 0 4 30 115 66 0 75 113 117 0 +.215 -.02 0 -279343554907698e-31 1 0 16 75
 45 118 ?71 88 69 115 0 0 4 30 117 86 0 104 115 119 0 +.215 -.02 .025 0 0 -1 16
 104 74 120 ?76 96 52 117 0 0 4 30 119 87 0 96 117 97 0 +.215 -.1442 .025 0 0 -1
 16 96 75 121 ?70 92 104 119 0 0 4 30 97 88 0 92 119 38 0 +.185 -.1442 .025 0 0
 -1 30 38 89 0 44 97 27 0 +.185 -.02 .025 0 0 -1 16 44 77 122 ?80 30 92 38 0 0 4
 81 1 122 281 101 44 0 0 42 95 123 17 80 0 79 62 77 58 89 44 0 111 +17 89 0 124
 87 111 72 80 44 0 0 -17 111 0 124 89 76 58 125 108 0 0 +15 124 84 0 111 35 0 17
 76 0 124 111 87 39 53 104 0 125 +17 125 0 126 74 60 39 111 108 0 0 -15 126 44 0
 125 127 0 17 74 0 126 68 125 63 71 75 0 0 -17 60 0 126 125 68 58 62 94 0 80 -17
 68 0 126 60 74 61 64 69 0 0 -14 255 127 43 128 ?129 84 130 25 131 -0 0 129 84 4
1 91 255 128 0 23 127 132 0 133 134 14 129 149 133 ?135 127 136 25 137 -0 0 135
 127 41 14 84 1 134 ?127 138 139 25 140 +0 0 127 138 41 15 130 138 0 141 127 126
 50 255 131 65 0 127 140 142 0 +.2 -223474843926159e-31 0 0 0 1 -111737421963079
4e-31 -1 0 13 41 29 0 0 0 0 0 0 29 35 14 35 85 33 ?93 0 124 25 26 -0 0 93 0 41 9
1 33 0 23 35 143 0 144 0 14 93 83 144 ?98 35 79 25 37 -0 0 98 35 41 91 144 0 23
 93 145 0 146 33 14 98 81 146 ?138 93 65 25 147 -0 0 138 93 41 50 37 92 0 93 147
 26 0 +.185 -.02 .025 1 0 0 0 1 0 51 147 91 0 98 142 37 0 -.2 -.1442 .025 0 0 -1
 .015 1117374219630794e-31 1 0 50 142 90 0 138 131 147 0 +.215 -.02 .025 -1 -279
343554907698e-31 0 279343554907698e-31 -1 0 14 138 79 148 ?84 98 73 25 142 -0 0
 84 98 41 91 148 0 23 138 149 0 134 146 15 73 78 0 71 138 0 91 149 0 150 138 151
 148 152 153 91 134 0 23 84 152 0 128 148 91 146 0 23 98 153 0 148 144 91 153 0
 150 98 154 146 149 145 90 150 275 0 4 155 156 2 143 81 1 154 266 101 98 0 153 1
57 151 158 91 145 0 150 93 157 144 153 143 81 1 157 265 101 93 0 145 159 154 160
 91 143 0 150 35 159 33 145 0 81 1 159 264 101 35 0 143 0 157 161 80 255 1 101 0
 162 8001 0 0 0 0 3 5 0 0 0 FFFFTFTFFFFFFF2 83 255 3 161 .537254902 .3490196078
 .337254902 79 255 15 162 SDL/TYSA_COLOUR83 3 160 .537254902 .3490196078 .337254
902 81 1 151 267 101 138 0 149 154 163 164 83 3 158 .537254902 .3490196078 .3372
54902 81 1 163 268 101 84 0 152 151 165 166 83 3 164 .537254902 .3490196078 .337
254902 91 152 0 150 84 163 134 132 149 81 1 165 269 101 127 0 132 163 167 168 83
 3 166 .537254902 .3490196078 .337254902 91 132 0 150 127 165 128 169 152 81 1 1
67 270 101 129 0 169 165 170 171 83 3 168 .537254902 .3490196078 .337254902 91 1
69 0 150 129 167 133 172 132 81 1 170 271 101 135 0 172 167 173 174 83 3 171 .53
7254902 .3490196078 .337254902 14 135 154 175 ?176 129 177 25 178 +0 0 176 129 4
1 91 172 0 150 135 170 175 179 169 81 1 173 272 101 176 0 179 170 180 181 83 3 1
74 .537254902 .3490196078 .337254902 14 176 195 182 ?183 135 184 25 185 -0 0 183
 135 41 91 179 0 150 176 173 182 186 172 81 1 180 273 101 183 0 186 173 42 187 8
3 3 181 .537254902 .3490196078 .337254902 14 183 200 188 ?0 176 189 25 190 +0 0
 0 176 41 91 186 0 150 183 180 188 0 179 81 1 42 280 101 30 0 0 180 122 191 83 3
 187 .537254902 .3490196078 .337254902 83 3 191 .537254902 .3490196078 .33725490
2 91 188 0 23 183 186 0 0 182 91 182 0 23 176 179 0 188 175 91 175 0 23 135 172
 0 182 133 91 133 0 23 129 169 0 175 128 15 189 202 0 192 183 0 50 190 210 0 183
 0 185 0 +.2 -.1442 .035 0 0 1 -1117374219630794e-31 -1 0 51 185 208 0 176 190 1
78 0 -.2 -.1442 .035 0 0 -1 .01 1117374219630794e-31 1 0 50 178 164 0 135 185 13
7 0 +.2 -223474843926159e-31 -.025 0 0 -1 1117374219630794e-31 1 0 51 137 162 0
 129 178 140 0 -.2 -223474843926159e-31 -.025 0 0 1 .015 -1117374219630794e-31 -
1 0 50 140 2 0 84 137 131 0 +.2 -223474843926159e-31 .025 0 0 1 -111737421963079
4e-31 -1 0 17 192 0 189 192 192 0 193 194 0 0 +17 193 0 184 193 193 0 192 194 0
 0 -16 194 192 195 ?192 112 196 197 0 0 4 81 1 195 294 101 194 0 0 198 199 200 1
6 112 146 198 ?201 108 194 202 0 0 4 16 196 189 199 ?203 194 0 204 0 0 4 31 197
 212 0 194 0 204 0 +.2 -.1442 .035 0 0 1 -1117374219630794e-31 -1 0 .01 31 204 2
11 0 196 197 202 0 +.2 -.1442 .025 0 0 1 -1117374219630794e-31 -1 0 .01 31 202 1
66 0 112 204 106 0 +.2 -223474843926159e-31 -.025 0 0 -1 1117374219630794e-31 1
 0 .015 31 106 5 0 88 202 91 0 +.2 -223474843926159e-31 .025 0 0 1 -111737421963
0794e-31 -1 0 .025 16 88 4 205 ?49 83 75 106 0 0 4 81 1 205 288 101 88 0 0 90 11
8 206 81 1 90 287 101 83 0 0 99 205 207 81 1 118 289 101 75 0 0 205 116 208 83 3
 206 .537254902 .3490196078 .337254902 81 1 116 290 101 69 0 0 118 114 209 83 3
 208 .537254902 .3490196078 .337254902 81 1 114 291 101 94 0 0 116 110 210 83 3
 209 .537254902 .3490196078 .337254902 81 1 110 292 101 108 0 0 114 198 211 83 3
 210 .537254902 .3490196078 .337254902 81 1 198 293 101 112 0 0 110 195 212 83 3
 211 .537254902 .3490196078 .337254902 83 3 212 .537254902 .3490196078 .33725490
2 83 3 207 .537254902 .3490196078 .337254902 81 1 199 295 101 196 0 0 195 0 213
 17 203 0 214 203 203 0 215 196 0 0 +15 214 199 0 203 176 0 17 215 0 139 215 215
 0 203 196 0 0 -15 139 183 0 215 84 48 83 3 213 .537254902 .3490196078 .33725490
2 17 201 0 177 201 201 0 216 112 0 0 +15 177 156 0 201 135 0 17 216 0 136 216 21
6 0 201 112 0 0 -15 136 152 0 216 129 217 15 217 153 0 43 129 0 17 43 0 217 43 4
3 0 141 30 0 0 +17 141 0 130 141 141 0 43 30 0 0 -83 3 200 .537254902 .349019607
8 .337254902 15 184 198 0 193 176 214 81 1 155 274 218 4 219 150 0 0 220 81 1 15
6 276 221 4 150 222 0 0 223 80 1 221 224 225 9000 0 0 0 0 3 5 0 0 0 FFTFFFFFFFFF
FF1 81 1 222 277 226 4 156 227 0 0 228 82 255 1 223 4 80 1 226 221 229 9000 0 0
 0 0 3 5 0 0 0 FFTFFFFFFFFFFF3 81 1 227 278 230 4 222 32 0 0 231 84 255 5 228 PS
MAR80 1 230 226 232 9000 0 0 0 0 3 5 0 0 0 FFTFFFFFFFFFFF3 81 1 32 279 233 4 227
 23 0 0 234 84 5 231 Link280 1 233 230 235 9000 0 0 0 0 3 5 0 0 0 FFTFFFFFFFFFFF
3 84 6 234 SOLID379 15 235 AdamsObjectName79 13 232 AdamsPartName79 12 229 Adams
RFMName79 12 225 UG2/ADAMS_ID80 1 218 236 237 8017 0 0 0 0 0 0 0 0 0 TTTTTTTTTTT
TTF3 81 2 219 243 224 4 238 155 0 0 0 239 84 5 220 Link280 2 224 240 241 9000 0
 0 0 0 3 5 0 0 0 FFTFFFFFFFFFFF9 1 81 2 238 232 240 4 242 219 0 0 0 243 82 1 239
 103 80 2 240 244 245 9000 0 0 0 0 3 5 0 0 0 FFTFFFFFFFFFFF9 1 81 2 242 217 246
 4 247 238 0 0 0 248 82 1 243 1 80 2 246 249 250 9000 0 0 0 0 3 5 0 0 0 FFTFFFFF
FFFFFF9 1 81 2 247 213 249 4 251 242 0 0 0 252 82 1 248 84 80 2 249 253 254 9000
 0 0 0 0 3 5 0 0 0 FFTFFFFFFFFFFF9 1 81 2 251 131 244 4 0 247 0 0 0 0 82 1 252 1
12 80 2 244 246 255 9000 0 0 0 0 3 5 0 0 0 FFTFFFFFFFFFFF9 1 79 16 255 BODY_RECI
PE_200179 19 254 ENT_TIME_STAMP_200179 30 250 LAST_BODY_MODIFYING_FEATURE_ID79 2
4 245 BODY_IN_LIGHTWEIGHT_PERM79 12 241 ATOM_ID_200179 13 237 SDL/TYSA_NAME17 87
 0 124 76 89 31 49 88 0 0 -17 53 0 73 51 71 31 76 104 0 87 -17 51 0 73 70 53 46
 45 52 0 0 -17 70 0 73 71 51 63 66 96 0 74 +81 1 95 282 101 92 0 0 122 121 256 8
3 3 123 .537254902 .3490196078 .337254902 81 1 121 283 101 96 0 0 95 120 257 83
 3 256 .537254902 .3490196078 .337254902 81 1 120 284 101 104 0 0 121 102 258 83
 3 257 .537254902 .3490196078 .337254902 81 1 102 285 101 52 0 0 120 99 259 83 3
 258 .537254902 .3490196078 .337254902 83 3 259 .537254902 .3490196078 .33725490
2 83 3 103 .537254902 .3490196078 .337254902 19 36 95 0 4 0 29 25 S0 74 20 34 11
 0 0 251 247 242 238 219 199 155 156 222 227 32 0 0 0 0 0 0 0 0 0 90 14 704 0 3
 260 0 2 261 70 15 0 4 T3 0 0 11 20 1 262 262 13 16 94 0 3 0 263 0 0 264 0 51 17
 564 0 265 266 0 267 +.0416666666666668 .025 0 -488426618885013e-29 1 0 .025 -1
 -488426618885013e-29 0 31 18 537 0 21 268 0 0 -.0416666666666668 .025 0 -895965
47202045e-30 -1 0 1 -89596547202045e-30 0 .025 29 19 519 0 22 269 0 .04330127018
922195 .025 .0249465041904482 19 20 28 0 3 264 0 270 V0 16 21 535 271 ?272 0 273
 18 0 0 3 18 22 517 0 274 0 275 19 ?3 17 274 0 276 277 278 22 279 280 0 281 +18
 275 514 0 282 22 283 269 ?3 17 282 0 276 278 284 275 285 286 0 287 +18 283 511
 0 288 275 289 290 ?3 29 269 516 0 275 290 19 .04166666666666705 -.0276385399196
2775 .025 29 290 513 0 283 291 269 .0416666666666668 .02763853991962815 .025 29
 291 505 0 289 292 290 .04330127018922195 -.025 .0249465041904482 18 289 503 0 2
93 283 294 291 ?3 29 292 225 0 294 295 291 .2 .025 0 18 294 223 0 296 289 297 29
2 ?3 29 295 70 0 297 298 292 .04330127018922195 .025 -.025 18 297 61 0 277 294 2
99 295 ?3 29 298 71 0 299 300 295 .2 .025 -.025 18 299 62 0 301 297 302 298 ?3 2
9 300 72 0 302 303 298 .2 -.025 -.025 18 302 63 0 304 299 305 300 ?3 29 303 73 0
 305 306 300 .04330127018922195 -.025 -.025 18 305 64 0 307 302 308 303 ?3 29 30
6 464 0 308 309 303 .2 -.025 0 18 308 344 0 310 305 311 306 ?3 29 309 474 0 311
 312 306 .0666666666666671 -.025 0 18 311 353 0 313 308 314 309 ?3 29 312 475 0
 314 0 309 .0666666666666668 .025 0 18 314 347 0 272 311 0 312 ?3 17 272 0 315 3
16 281 314 317 21 0 318 +15 315 78 0 281 319 0 17 316 0 315 301 272 294 318 320
 0 321 -17 281 0 315 272 322 22 277 323 0 317 -17 317 0 324 279 325 22 272 21 0
 0 -17 318 0 326 327 296 314 316 320 0 325 +15 326 376 0 296 328 0 17 327 0 326
 310 318 311 325 329 0 330 +17 296 0 326 318 310 294 331 332 0 316 +16 320 284 3
33 ?318 329 0 334 0 0 3 17 325 0 324 317 313 314 327 329 0 0 -15 324 549 0 279 2
65 0 17 313 0 324 325 285 311 293 335 0 327 -16 329 324 336 ?327 337 320 338 0 0
 3 81 1 336 702 101 329 0 0 339 333 340 16 337 319 339 ?310 341 329 342 0 0 3 30
 338 460 0 329 334 342 0 +.0666666666666668 .025 0 488426618885013e-29 -1 0 30 3
34 461 0 320 0 338 0 +.2 .025 0 -1 1117374219630794e-31 0 30 342 459 0 337 338 3
43 0 +.0666666666666671 -.025 0 1 -189799978382036e-30 0 31 343 448 0 332 342 34
4 0 +.2 -223474843926159e-31 0 0 0 1 -1117374219630794e-31 -1 0 .025 16 332 291
 345 ?296 346 341 343 0 0 3 31 344 180 0 346 343 347 0 +.2 -223474843926159e-31
 -.025 0 0 1 -1117374219630794e-31 -1 0 .015 16 346 158 348 ?349 350 332 344 0 0
 3 31 347 143 0 351 344 352 0 +0 0 .025 0 0 1 -1117374219630794e-31 -1 0 .02 16
 351 123 353 ?354 355 350 347 0 0 3 31 352 142 0 350 347 356 0 +0 0 -.025 0 0 1
 -1117374219630794e-31 -1 0 .02 16 350 120 357 ?358 351 346 352 0 0 3 31 356 5 0
 359 352 360 0 +0 0 .025 0 0 1 -1117374219630794e-31 -1 0 .05 16 359 512 361 ?28
7 323 362 356 0 0 3 31 360 69 0 355 356 363 0 +0 0 -.025 0 0 1 -1117374219630794
e-31 -1 0 .05 16 355 57 364 ?365 366 351 360 0 0 3 30 363 68 0 366 360 367 0 +.0
4330127018922195 -.025 -.025 1 -1338782967241138e-31 0 16 366 53 368 ?369 370 35
5 363 0 0 3 31 367 67 0 370 363 371 0 +.2 -223474843926159e-31 -.025 0 0 1 -1117
374219630794e-31 -1 0 .025 16 370 49 372 ?373 362 366 367 0 0 3 30 371 66 0 362
 367 374 0 +.04330127018922195 .025 -.025 -1 89596547202045e-30 0 16 362 45 375
 ?322 359 370 371 0 0 3 30 374 86 0 323 371 376 0 +.04330127018922195 .025 .025
 0 0 -1 16 323 518 377 ?277 378 359 374 0 0 3 30 376 87 0 378 374 379 0 +.2 .025
 .025 0 0 -1 16 378 224 380 ?301 381 323 376 0 0 3 30 379 88 0 381 376 382 0 +.2
 -.025 .025 0 0 -1 16 381 239 383 ?304 384 378 379 0 0 3 30 382 89 0 384 379 385
 0 +.04330127018922195 -.025 .025 0 0 -1 16 384 504 386 ?307 335 381 382 0 0 3 3
1 385 217 0 341 382 387 0 +.2 -223474843926159e-31 0 0 0 1 -1117374219630794e-31
 -1 0 .015 16 341 290 388 ?389 332 337 385 0 0 3 31 387 508 0 335 385 390 0 -.04
166666666666705 -.025 0 1338782967241138e-31 1 0 -1 1338782967241138e-31 0 .025
 16 335 506 391 ?293 280 384 387 0 0 3 38 255 390 522 0 280 387 392 0 +17 266 39
3 394 395 16 280 520 396 ?274 286 335 390 0 0 3 38 392 527 0 286 390 268 0 +17 2
66 397 398 399 51 266 93 0 400 401 17 402 -0 0 .025 0 0 -1 .05 1117374219630794e
-31 1 0 40 255 2 393 0 1 2 .0001101946163372782 .070201283843478 ??.041666666666
6668 .02763853991962815 .025 .04330127018922195 .025 .0249465041904482 41 3 CI8
 term_use0 0 1 cCZ1 394 L?.0416666666666668 .02763853991962815 .025 41 1 395 L?.
04330127018922195 .025 .0249465041904482 14 400 85 403 ?404 405 276 16 266 -0 0
 404 405 270 50 401 92 0 404 406 266 0 +.04330127018922195 -.025 .025 1338782967
241138e-31 1 0 -1 1338782967241138e-31 0 141 255 402 390 407 407 266 141 407 392
 402 402 266 14 404 83 408 ?319 400 409 16 401 -0 0 319 400 270 51 406 91 0 263
 410 401 0 -.2 -223474843926159e-31 .025 0 0 -1 .025 1117374219630794e-31 1 0 14
 263 246 261 ?411 0 412 16 406 -0 0 411 0 270 50 410 90 0 319 413 406 0 +.043301
27018922195 .025 .025 -89596547202045e-30 -1 0 1 -89596547202045e-30 0 14 319 79
 414 ?415 404 315 16 410 -0 0 415 404 270 50 413 65 0 405 416 410 0 +0 0 -.025 0
 0 1 -1117374219630794e-31 -1 0 14 405 149 417 ?400 418 419 16 413 -0 0 400 418
 270 50 416 2 0 418 420 413 0 +0 0 .025 0 0 1 -1117374219630794e-31 -1 0 14 418
 155 421 ?405 411 422 16 416 +0 0 405 411 270 51 420 139 0 415 423 416 0 -0 0 .0
25 0 0 -1 .02 1117374219630794e-31 1 0 14 415 126 424 ?328 319 425 16 420 +0 0 3
28 319 270 51 423 177 0 411 426 420 0 -.2 -223474843926159e-31 .025 0 0 -1 .015
 1117374219630794e-31 1 0 14 411 218 427 ?418 263 428 16 423 +0 0 418 263 270 50
 426 445 0 328 0 423 0 +0 0 0 0 0 1 -1117374219630794e-31 -1 0 14 328 370 429 ?2
65 415 430 16 426 +0 0 265 415 270 91 429 0 14 328 431 0 432 424 14 265 548 432
 ?0 328 324 16 17 +0 0 0 328 270 15 430 375 0 433 328 326 13 270 29 0 0 0 0 0 0
 20 263 17 433 0 430 433 433 0 389 341 0 0 -17 389 0 434 389 389 0 433 341 0 0 +
15 434 215 0 389 411 0 91 432 0 14 265 435 0 0 429 91 435 0 436 265 437 432 0 43
1 90 436 677 0 3 438 439 2 440 81 1 437 675 101 265 0 435 441 271 442 91 431 0 4
36 328 441 429 435 443 81 1 441 674 101 328 0 431 444 437 445 91 443 0 436 415 4
44 424 431 446 81 1 444 673 101 415 0 443 447 441 448 91 424 0 14 415 443 0 429
 414 91 446 0 436 319 447 414 443 449 81 1 447 672 101 319 0 446 450 444 451 91
 414 0 14 319 446 0 424 408 91 449 0 436 404 450 408 446 452 81 1 450 671 101 40
4 0 449 453 447 454 91 408 0 14 404 449 0 414 403 91 452 0 436 400 453 403 449 4
55 81 1 453 670 101 400 0 452 456 450 457 91 403 0 14 400 452 0 408 417 91 455 0
 436 405 456 417 452 458 81 1 456 669 101 405 0 455 459 453 460 91 417 0 14 405
 455 0 403 421 91 458 0 436 418 459 421 455 461 81 1 459 668 101 418 0 458 462 4
56 463 91 421 0 14 418 458 0 417 427 91 461 0 436 411 462 427 458 440 81 1 462 6
67 101 411 0 461 464 459 465 91 427 0 14 411 461 0 421 261 91 440 0 436 263 464
 261 461 0 81 1 464 666 101 263 0 440 0 462 466 91 261 0 14 263 440 0 427 0 83 3
 466 .831372549 .6705882353 .1294117647 83 3 465 .831372549 .6705882353 .1294117
647 83 3 463 .831372549 .6705882353 .1294117647 83 3 460 .831372549 .6705882353
 .1294117647 83 3 457 .831372549 .6705882353 .1294117647 83 3 454 .831372549 .67
05882353 .1294117647 83 3 451 .831372549 .6705882353 .1294117647 83 3 448 .83137
2549 .6705882353 .1294117647 83 3 445 .831372549 .6705882353 .1294117647 81 1 27
1 682 101 21 0 0 437 467 468 83 3 442 .831372549 .6705882353 .1294117647 81 1 46
7 683 101 273 0 0 271 469 470 83 3 468 .831372549 .6705882353 .1294117647 16 273
 530 467 ?288 21 286 268 0 0 3 81 1 469 684 101 286 0 0 467 396 471 83 3 470 .83
1372549 .6705882353 .1294117647 16 286 525 469 ?282 273 280 392 0 0 3 81 1 396 6
85 101 280 0 0 469 391 472 83 3 471 .831372549 .6705882353 .1294117647 81 1 391
 686 101 335 0 0 396 386 473 83 3 472 .831372549 .6705882353 .1294117647 81 1 38
6 687 101 384 0 0 391 383 474 83 3 473 .831372549 .6705882353 .1294117647 81 1 3
83 688 101 381 0 0 386 380 475 83 3 474 .831372549 .6705882353 .1294117647 81 1
 380 689 101 378 0 0 383 377 476 83 3 475 .831372549 .6705882353 .1294117647 81
 1 377 690 101 323 0 0 380 361 477 83 3 476 .831372549 .6705882353 .1294117647 8
1 1 361 691 101 359 0 0 377 375 478 83 3 477 .831372549 .6705882353 .1294117647
 81 1 375 692 101 362 0 0 361 372 479 83 3 478 .831372549 .6705882353 .129411764
7 81 1 372 693 101 370 0 0 375 368 480 83 3 479 .831372549 .6705882353 .12941176
47 81 1 368 694 101 366 0 0 372 364 481 83 3 480 .831372549 .6705882353 .1294117
647 81 1 364 695 101 355 0 0 368 353 482 83 3 481 .831372549 .6705882353 .129411
7647 81 1 353 696 101 351 0 0 364 357 483 83 3 482 .831372549 .6705882353 .12941
17647 81 1 357 697 101 350 0 0 353 348 484 83 3 483 .831372549 .6705882353 .1294
117647 81 1 348 698 101 346 0 0 357 345 485 83 3 484 .831372549 .6705882353 .129
4117647 81 1 345 699 101 332 0 0 348 388 486 83 3 485 .831372549 .6705882353 .12
94117647 81 1 388 700 101 341 0 0 345 339 487 83 3 486 .831372549 .6705882353 .1
294117647 81 1 339 701 101 337 0 0 388 336 488 83 3 487 .831372549 .6705882353 .
1294117647 83 3 488 .831372549 .6705882353 .1294117647 17 288 0 422 287 287 283
 489 273 0 278 +30 268 532 0 273 392 18 0 -.0416666666666668 .025 .025 488426618
885013e-29 -1 0 15 422 266 0 287 418 490 17 287 0 422 288 288 275 278 359 0 489
 +17 489 0 324 285 279 275 288 273 0 0 -17 278 0 276 274 282 283 287 359 0 279 -
15 276 84 0 284 400 0 17 279 0 324 489 317 283 274 280 0 0 -17 284 0 276 282 365
 289 307 384 0 285 -17 365 0 276 284 277 305 491 355 0 0 +17 307 0 409 369 293 3
05 284 384 0 492 +17 285 0 324 313 489 289 282 286 0 0 -15 409 82 0 330 404 0 17
 369 0 409 493 307 302 492 366 0 494 +17 293 0 409 307 330 289 313 335 0 284 +17
 492 0 419 491 494 305 369 366 0 365 -15 419 44 0 491 405 495 17 491 0 419 496 4
92 297 365 355 0 0 -17 494 0 419 492 496 302 373 370 0 0 -17 496 0 419 494 491 2
99 322 362 0 0 -17 373 0 412 321 304 299 494 370 0 496 +15 412 245 0 331 263 0 1
7 321 0 412 331 373 294 301 378 0 0 -17 304 0 412 373 331 302 493 381 0 369 +17
 331 0 412 304 321 308 296 332 0 493 -17 493 0 409 330 369 308 304 381 0 0 -17 3
30 0 409 293 493 311 310 337 0 0 -17 310 0 326 296 327 308 330 337 0 331 +17 301
 0 315 322 316 299 321 378 0 373 +17 322 0 315 281 301 297 496 362 0 491 +15 495
 109 0 358 405 497 17 358 0 495 358 358 0 498 350 0 0 +15 497 147 0 349 405 0 17
 349 0 497 349 349 0 499 346 0 0 +17 499 0 428 499 499 0 349 346 0 0 -15 428 168
 0 499 411 434 17 498 0 500 498 498 0 358 350 0 0 -15 500 130 0 498 415 0 17 277
 0 276 365 274 297 281 323 0 322 +15 490 114 0 501 418 0 17 501 0 490 501 501 0
 354 351 0 0 -17 354 0 425 354 354 0 501 351 0 0 +15 425 129 0 354 415 500 81 1
 438 676 218 3 502 436 0 0 503 81 1 439 678 221 3 436 504 0 0 505 81 1 504 679 2
26 3 439 506 0 0 507 82 1 505 3 81 1 506 680 230 3 504 260 0 0 508 84 5 507 PSMA
R81 1 260 681 233 3 506 14 0 0 509 84 5 508 Link184 6 509 SOLID281 2 502 642 224
 3 510 438 0 0 0 511 84 5 503 Link181 2 510 591 240 3 512 502 0 0 0 513 82 1 511
 105 81 2 512 501 244 3 514 510 0 0 0 0 82 1 513 1 81 2 514 203 246 3 515 512 0
 0 0 516 81 2 515 106 249 3 0 514 0 0 0 517 82 1 516 81 82 1 517 129 40 2 397 0
 1 2 .000110194616337238 .0702012838434669 ??.04330127018922195 -.025 .024946504
1904482 .04166666666666705 -.02763853991962775 .025 41 1 398 L?.0433012701892219
5 -.025 .0249465041904482 41 1 399 L?.04166666666666705 -.02763853991962775 .025
 81 1 333 703 101 320 0 0 336 0 518 83 3 340 .831372549 .6705882353 .1294117647
 83 3 518 .831372549 .6705882353 .1294117647 19 264 95 0 3 0 20 16 S0 141 267 39
0 519 519 17 141 519 392 267 267 17 74 20 262 11 0 0 515 514 512 510 502 333 438
 439 504 506 260 0 0 0 0 0 0 0 0 0 90 5 197 0 2 520 0 2 521 70 6 0 4 T2 0 0 11 2
0 1 522 522 13 9 29 0 2 0 523 0 0 524 0 51 10 28 0 523 525 0 0 -0 0 -.125 0 0 -1
 .4 1117374219630794e-31 1 0 31 11 23 0 526 527 0 0 +0 0 -.145 0 0 1 -1117374219
630794e-31 -1 0 .4 19 12 7 0 2 524 0 528 V0 16 13 4 529 ?530 0 526 527 0 0 2 81
 1 529 191 101 13 0 0 531 532 533 17 530 0 534 530 530 0 535 13 0 0 +16 526 18 5
32 ?536 13 537 11 0 0 2 31 527 5 0 13 538 11 0 +0 0 -.125 0 0 1 -111737421963079
4e-31 -1 0 .4 31 538 81 0 539 540 527 0 +0 0 -.125 0 0 1 -1117374219630794e-31 -
1 0 .05 16 539 59 541 ?542 537 543 538 0 0 2 31 540 82 0 537 544 538 0 +0 0 -.02
5 0 0 1 -1117374219630794e-31 -1 0 .05 16 537 62 545 ?546 526 539 540 0 0 2 31 5
44 122 0 547 548 540 0 +0 0 -.025 0 0 1 -1117374219630794e-31 -1 0 .02 16 547 10
0 549 ?550 543 0 544 0 0 2 31 548 123 0 543 0 544 0 +0 0 .025 0 0 1 -11173742196
30794e-31 -1 0 .02 16 543 103 551 ?552 539 547 548 0 0 2 81 1 551 195 101 543 0
 0 541 549 553 17 552 0 554 552 552 0 555 543 0 0 +15 554 113 0 552 556 0 17 555
 0 557 555 555 0 552 543 0 0 -15 557 109 0 555 558 559 14 558 106 560 ?556 561 5
57 9 562 -0 0 556 561 528 15 559 110 0 550 558 0 17 550 0 559 550 550 0 563 547
 0 0 +17 563 0 564 563 563 0 550 547 0 0 -15 564 94 0 563 561 565 14 561 70 566
 ?558 567 564 9 568 +0 0 558 567 528 15 565 72 0 546 561 0 17 546 0 565 546 546
 0 569 537 0 0 +17 569 0 570 569 569 0 546 537 0 0 -15 570 68 0 569 567 571 14 5
67 65 572 ?561 573 570 9 574 -0 0 561 573 528 15 571 69 0 542 567 0 17 542 0 571
 542 542 0 575 539 0 0 +17 575 0 576 575 575 0 542 539 0 0 -15 576 53 0 575 577
 534 14 577 1 578 ?573 523 576 9 579 +0 0 573 523 528 15 534 3 0 530 577 0 91 57
8 0 5 577 580 0 581 521 14 573 16 581 ?567 577 582 9 525 -0 0 567 577 528 14 523
 25 521 ?577 0 583 9 10 -0 0 577 0 528 50 579 2 0 577 574 525 0 +0 0 -.125 0 0 1
 -1117374219630794e-31 -1 0 13 528 8 0 0 0 0 0 0 12 523 51 574 78 0 567 568 579
 0 -0 0 -.025 0 0 -1 .05 1117374219630794e-31 1 0 50 525 22 0 573 579 10 0 +0 0
 -.145 0 0 1 -1117374219630794e-31 -1 0 50 568 80 0 561 562 574 0 +0 0 -.025 0 0
 1 -1117374219630794e-31 -1 0 51 562 119 0 558 584 568 0 -0 0 .025 0 0 -1 .02 11
17374219630794e-31 1 0 50 584 121 0 556 0 562 0 +0 0 .025 0 0 1 -111737421963079
4e-31 -1 0 14 556 111 585 ?0 558 554 9 584 +0 0 0 558 528 91 585 0 5 556 586 0 0
 560 91 586 0 587 556 531 585 0 588 91 560 0 5 558 588 0 585 566 91 588 0 587 55
8 589 560 586 590 91 566 0 5 561 590 0 560 572 91 590 0 587 561 591 566 588 592
 91 572 0 5 567 592 0 566 581 91 592 0 587 567 593 572 590 594 91 581 0 5 573 59
4 0 572 578 91 594 0 587 573 595 581 592 580 90 587 186 0 2 596 597 2 598 81 1 5
95 180 101 573 0 594 599 593 600 91 580 0 587 577 599 578 594 598 81 1 599 179 1
01 577 0 580 601 595 602 91 598 0 587 523 601 521 580 0 81 1 601 178 101 523 0 5
98 0 599 603 91 521 0 5 523 598 0 578 0 83 3 603 .6470588235 .6196078431 .588235
2941 83 3 602 .6470588235 .6196078431 .5882352941 81 1 593 181 101 567 0 592 595
 591 604 83 3 600 .6470588235 .6196078431 .5882352941 81 1 591 182 101 561 0 590
 593 589 605 83 3 604 .6470588235 .6196078431 .5882352941 81 1 589 183 101 558 0
 588 591 531 606 83 3 605 .6470588235 .6196078431 .5882352941 81 1 531 184 101 5
56 0 586 589 529 607 83 3 606 .6470588235 .6196078431 .5882352941 83 3 607 .6470
588235 .6196078431 .5882352941 81 1 596 185 218 2 608 587 0 0 609 81 1 597 187 2
21 2 587 610 0 0 611 81 1 610 188 226 2 597 612 0 0 613 82 1 611 2 81 1 612 189
 230 2 610 520 0 0 614 84 5 613 PSMAR81 1 520 190 233 2 612 5 0 0 615 84 4 614 B
ASE84 6 615 SOLID181 2 608 163 224 2 616 596 0 0 0 617 84 4 609 BASE81 2 616 141
 240 2 618 608 0 0 0 619 82 1 617 103 81 2 618 133 244 2 620 616 0 0 0 0 82 1 61
9 1 81 2 620 128 246 2 621 618 0 0 0 622 81 2 621 124 249 2 0 620 0 0 0 623 82 1
 622 47 82 1 623 116 15 583 24 0 535 523 624 17 535 0 583 535 535 0 530 13 0 0 -
15 624 26 0 536 523 0 17 536 0 624 536 536 0 625 526 0 0 +17 625 0 582 625 625 0
 536 526 0 0 -15 582 17 0 625 573 0 81 1 541 194 101 539 0 0 545 551 626 81 1 54
9 196 101 547 0 0 551 0 627 83 3 553 .6470588235 .6196078431 .5882352941 83 3 62
7 .6470588235 .6196078431 .5882352941 81 1 545 193 101 537 0 0 532 541 628 83 3
 626 .6470588235 .6196078431 .5882352941 81 1 532 192 101 526 0 0 529 545 629 83
 3 628 .6470588235 .6196078431 .5882352941 83 3 629 .6470588235 .6196078431 .588
2352941 83 3 533 .6470588235 .6196078431 .5882352941 19 524 30 0 2 0 12 9 S0 74
 20 522 11 0 0 621 620 618 616 608 549 596 597 610 612 520 0 0 0 0 0 0 0 0 0 1 0
 
