**ABCDEFGHIJKLMNOPQRSTUVWXYZabcdefghijklmnopqrstuvwxyz**************************
**PARASOLID !"#$%&'()*+,-./:;<=>?@[\]^_`{|}~0123456789**************************
**PART1;
MC=AMD64;
MC_MODEL=Intel64 Family 6 Model 60 Stepping 3, GenuineIntel;
MC_ID=unknown;
OS=Windows_NT;
OS_RELEASE=unknown;
FRU=Parasolid Version 27.0, build 178,  8-16-2014;
APPL=SOLIDWORKS 2015-2014271;
SITE=;
USER=unknown;
FORMAT=text;
GUISE=transmit;
KEY=SCARA_2DOF;
FILE=SCARA_2DOF.x_t;
DATE=Sun Feb 05 23:09:30 2017;
**PART2;
SCH=SCH_2700178_26105;
USFLD_SIZE=0;
**PART3;
**END_OF_HEADER*****************************************************************
T51 : TRANSMIT FILE created by modeller version 270017823 SCH_2700178_26105_1300
6196 0 10 255 1 6 0 0 0 0 0 0 0 1e3 1e-8 0 0 0 1 0 1 2 11 255 2 5 0 1 3 4 1 5 0
 0 0 12 30 CCCCCCCCCCCCCDI5 owner1040 0 CCCCCCCCCA13 boundary_mesh1006 0 A16 ind
ex_map_offset0 0 1 dA9 index_map82 0 A17 node_id_index_map82 0 A20 schema_embedd
ing_map82 0 A5 child12 0 A14 lowest_node_id0 0 1 dZ3 274 6 7 0 0 0 0 1e3 1e-8 2
 8 0 1 0 1 1 9 10 11 12 13 14 15 0 0 0 0 0 0 0 100 255 4 6 2 0 0 1 0 -1117374219
630794e-31 -1117374219630794e-31 0 -1 0 1 0 .2 -223474843926159e-31 0 1 3 ?11 5
 3 0 1 8 16 1 17 2 0 0 12 8 676 18 19 0 0 0 0 1e3 1e-8 5 20 3 1 0 1 1 21 22 23 2
4 25 26 27 0 0 0 0 0 0 0 100 16 4 5 0 0 1 0 -1117374219630794e-31 -1117374219630
794e-31 0 -1 0 1 0 0 0 -.025 1 3 ?11 17 1 0 1 20 28 1 0 5 0 0 12 20 185 29 30 0
 0 0 0 1e3 1e-8 17 31 8 1 0 1 1 32 33 34 0 35 36 0 0 0 0 0 0 0 0 100 28 2 17 0 0
 1 0 -1117374219630794e-31 -1117374219630794e-31 0 -1 0 1 0 0 0 -.145 1 3 ?81 25
5 1 29 185 37 20 38 0 0 0 39 70 11 CI9 list_type0 0 1 uI10 notransmit0 0 1 lCCCD
CCDI12 finger_index0 0 1 dI12 finger_block1012 0 CZ30 0 4 T20 0 0 9 20 1 40 40 1
3 255 32 29 0 20 0 41 0 0 42 0 51 255 33 28 0 41 43 0 0 -0 .02 0 0 -1 0 .4 0 0 -
1 31 255 34 23 0 44 45 0 0 +0 0 0 0 1 0 0 0 1 .4 19 8 CCCCCCCA5 owner12 0 Z35 7
 0 20 42 0 46 V0 16 255 36 4 0 ?47 0 44 45 0 0 20 17 255 47 0 48 47 47 0 49 36 0
 0 +16 44 18 0 ?50 36 51 34 0 0 20 31 45 5 0 36 52 34 0 +0 .02 0 0 1 0 0 0 1 .4
 31 52 81 0 53 54 45 0 +0 .02 0 0 1 0 0 0 1 .05 16 53 59 0 ?55 51 56 52 0 0 20 3
1 54 82 0 51 57 52 0 +0 .12 0 0 1 0 0 0 1 .05 16 51 62 0 ?58 44 53 54 0 0 20 31
 57 122 0 59 60 54 0 +0 .12 0 0 1 0 0 0 1 .02 16 59 100 0 ?61 56 0 57 0 0 20 31
 60 123 0 56 0 57 0 +0 .17 0 0 1 0 0 0 1 .02 16 56 103 0 ?62 53 59 60 0 0 20 17
 62 0 63 62 62 0 64 56 0 0 +15 255 63 113 0 62 65 0 17 64 0 66 64 64 0 62 56 0 0
 -15 66 109 0 64 67 68 14 255 67 106 69 ?65 70 66 32 71 -0 0 65 70 46 15 68 110
 0 61 67 0 17 61 0 68 61 61 0 72 59 0 0 +17 72 0 73 72 72 0 61 59 0 0 -15 73 94
 0 72 70 74 14 70 70 75 ?67 76 73 32 77 +0 0 67 76 46 15 74 72 0 58 70 0 17 58 0
 74 58 58 0 78 51 0 0 +17 78 0 79 78 78 0 58 51 0 0 -15 79 68 0 78 76 80 14 76 6
5 81 ?70 82 79 32 83 -0 0 70 82 46 15 80 69 0 55 76 0 17 55 0 80 55 55 0 84 53 0
 0 +17 84 0 85 84 84 0 55 53 0 0 -15 85 53 0 84 86 48 14 86 1 87 ?82 41 85 32 88
 +0 0 82 41 46 15 48 3 0 47 86 0 81 1 87 179 89 86 90 0 91 92 93 14 82 16 92 ?76
 86 94 32 43 -0 0 76 86 46 14 41 25 91 ?86 0 95 32 33 -0 0 86 0 46 50 255 88 2 0
 86 83 43 0 +0 .02 0 0 1 0 0 0 1 13 46 8 0 0 0 0 0 0 35 41 51 83 78 0 76 77 88 0
 -0 .12 0 0 -1 0 .05 0 0 -1 50 43 22 0 82 88 33 0 +0 0 0 0 1 0 0 0 1 50 77 80 0
 70 71 83 0 +0 .12 0 0 1 0 0 0 1 51 71 119 0 67 96 77 0 -0 .17 0 0 -1 0 .02 0 0
 -1 50 96 121 0 65 0 71 0 +0 .17 0 0 1 0 0 0 1 14 65 111 97 ?0 67 63 32 96 +0 0
 0 67 46 81 1 97 184 89 65 98 0 69 0 99 80 255 1 89 0 100 8001 0 0 0 0 3 5 0 0 0
 FFFFTFTFFFFFFF2 81 1 98 176 101 65 0 97 102 0 103 81 1 69 183 89 67 104 0 75 97
 105 83 255 3 99 .647058823529412 .619607843137255 .588235294117647 81 1 104 164
 101 67 0 69 0 106 107 81 1 75 182 89 70 106 0 81 69 108 83 3 105 .6470588235294
12 .619607843137255 .588235294117647 81 1 106 166 101 70 0 75 104 109 110 81 1 8
1 181 89 76 109 0 92 75 111 83 3 108 .647058823529412 .619607843137255 .58823529
4117647 81 1 109 168 101 76 0 81 106 90 112 81 1 92 180 89 82 113 0 87 81 114 83
 3 111 .647058823529412 .619607843137255 .588235294117647 81 1 113 172 101 82 0
 92 90 102 115 83 3 114 .647058823529412 .619607843137255 .588235294117647 80 1
 101 116 117 9000 1 1 1 1 1 1 1 1 0 FFFFTFTFFFFFFF1 81 1 90 170 101 86 0 87 109
 113 118 81 1 102 174 101 41 0 91 113 98 119 82 255 1 115 -1055850384 81 1 91 17
8 89 41 102 0 0 87 120 82 1 119 -1055588240 83 3 120 .647058823529412 .619607843
137255 .588235294117647 82 1 118 -1057554317 79 255 14 117 SWEntUnchanged82 1 11
2 -1045495693 82 1 110 -1047461735 82 1 107 -1536098151 82 1 103 -1538064231 79
 15 100 SDL/TYSA_COLOUR15 95 24 0 49 41 121 17 49 0 95 49 49 0 47 36 0 0 -15 121
 26 0 50 41 0 17 50 0 121 50 50 0 122 44 0 0 +17 122 0 94 122 122 0 50 44 0 0 -1
5 94 17 0 122 82 0 83 3 93 .647058823529412 .619607843137255 .588235294117647 19
 42 30 0 20 0 35 32 S0 74 4 CI16 index_map_offset0 0 1 dCCZ20 40 9 0 0 98 123 12
4 125 126 127 38 97 29 0 0 0 0 0 0 0 0 0 0 0 81 2 123 124 128 20 0 124 0 0 0 129
 81 2 124 128 130 20 123 125 0 0 0 131 81 1 125 132 132 20 124 126 0 0 133 81 2
 126 133 134 20 125 127 0 0 0 0 81 2 127 141 135 20 126 38 0 0 0 136 81 2 38 163
 137 20 127 29 0 0 0 138 80 2 137 139 140 9000 0 0 0 0 3 5 0 0 0 FFTFFFFFFFFFFF9
 1 82 1 138 103 79 12 140 ATOM_ID_200180 2 135 141 142 9000 0 0 0 0 3 5 0 0 0 FF
TFFFFFFFFFFF9 1 82 1 136 1 79 24 142 BODY_IN_LIGHTWEIGHT_PERM80 2 134 143 144 90
00 0 0 0 0 3 5 0 0 0 FFTFFFFFFFFFFF9 1 79 16 144 BODY_RECIPE_200180 1 132 145 14
6 9000 1 1 1 1 1 1 1 1 0 FFTFFFFFFFFFFF1 82 1 133 49396 79 10 146 BODY_MATCH80 2
 130 147 148 9000 0 0 0 0 3 5 0 0 0 FFTFFFFFFFFFFF9 1 82 1 131 47 79 30 148 LAST
_BODY_MODIFYING_FEATURE_ID80 2 128 149 150 9000 0 0 0 0 3 5 0 0 0 FFTFFFFFFFFFFF
9 1 82 1 129 116 79 19 150 ENT_TIME_STAMP_200180 1 37 151 152 8017 0 0 0 0 0 0 0
 0 0 TTTTTTTTTTTTTF3 84 255 4 39 BASE79 13 152 SDL/TYSA_NAME81 1 18 676 37 8 153
 0 0 0 154 70 19 0 4 T8 0 0 9 20 1 155 155 13 21 94 0 8 0 156 0 0 157 0 51 22 56
4 0 158 159 0 160 +.0416666666666668 .025 -.025 -499600361081321e-29 0 -1 .025 -
1 0 499600361081321e-29 31 23 537 0 26 161 0 0 -.0416666666666668 .025 -.025 221
4087476103445e-32 0 1 1 0 -2214087476103445e-32 .025 29 255 24 519 0 27 162 0 .0
4330127018922195 .0499465041904482 -.025 19 25 28 0 8 157 0 163 V0 16 26 535 0 ?
164 0 165 23 0 0 8 18 255 27 517 0 166 0 167 24 ?8 17 166 0 168 169 170 27 171 1
72 0 173 +18 167 514 0 174 27 175 162 ?8 17 174 0 168 170 176 167 177 178 0 179
 +18 175 511 0 180 167 181 182 ?8 29 162 516 0 167 182 24 .04166666666666705 .05
 .02763853991962775 29 182 513 0 175 183 162 .0416666666666668 .05 -.02763853991
962815 29 183 505 0 181 184 182 .04330127018922195 .0499465041904482 .025 18 181
 503 0 185 175 186 183 ?8 29 184 225 0 186 187 183 .2 .025 -.025 18 186 223 0 18
8 181 189 184 ?8 29 187 70 0 189 190 184 .04330127018922195 0 -.025 18 189 61 0
 169 186 191 187 ?8 29 190 71 0 191 192 187 .2 0 -.025 18 191 62 0 193 189 194 1
90 ?8 29 192 72 0 194 195 190 .2 0 .025 18 194 63 0 196 191 197 192 ?8 29 195 73
 0 197 198 192 .04330127018922195 0 .025 18 197 64 0 199 194 200 195 ?8 29 198 4
64 0 200 201 195 .2 .025 .025 18 200 344 0 202 197 203 198 ?8 29 201 474 0 203 2
04 198 .0666666666666671 .025 .025 18 203 353 0 205 200 206 201 ?8 29 204 475 0
 206 0 201 .0666666666666668 .025 -.025 18 206 347 0 164 203 0 204 ?8 17 164 0 2
07 208 173 206 209 26 0 210 +15 207 78 0 173 211 0 17 208 0 207 193 164 186 210
 212 0 213 -17 173 0 207 164 214 27 169 215 0 209 -17 209 0 216 171 217 27 164 2
6 0 0 -17 210 0 218 219 188 206 208 212 0 217 +15 218 376 0 188 220 0 17 219 0 2
18 202 210 203 217 221 0 222 +17 188 0 218 210 202 186 223 224 0 208 +16 212 284
 0 ?210 221 0 225 0 0 8 17 217 0 216 209 205 206 219 221 0 0 -15 216 549 0 171 1
58 0 17 205 0 216 217 177 203 185 226 0 219 -16 221 324 0 ?219 227 212 228 0 0 8
 16 227 319 0 ?202 229 221 230 0 0 8 30 255 228 460 0 221 225 230 0 +.0666666666
666668 .025 -.025 499600361081321e-29 0 1 30 225 461 0 212 0 228 0 +.2 .025 -.02
5 -1 0 0 30 230 459 0 227 228 231 0 +.0666666666666671 .025 .025 1 0 78062556418
9565e-31 31 231 448 0 224 230 232 0 +.2 .025 0 0 1 0 0 0 1 .025 16 224 291 0 ?18
8 233 229 231 0 0 8 31 232 180 0 233 231 234 0 +.2 0 0 0 1 0 0 0 1 .015 16 233 1
58 0 ?235 236 224 232 0 0 8 31 234 143 0 237 232 238 0 +0 .05 0 0 1 0 0 0 1 .02
 16 237 123 0 ?239 240 236 234 0 0 8 31 238 142 0 236 234 241 0 +0 0 0 0 1 0 0 0
 1 .02 16 236 120 0 ?242 237 233 238 0 0 8 31 241 5 0 243 238 244 0 +0 .05 0 0 1
 0 0 0 1 .05 16 243 512 0 ?179 215 245 241 0 0 8 31 244 69 0 240 241 246 0 +0 0
 0 0 1 0 0 0 1 .05 16 240 57 0 ?247 248 237 244 0 0 8 30 246 68 0 248 244 249 0
 +.04330127018922195 0 .025 1 0 2214087476103445e-32 16 248 53 0 ?250 251 240 24
6 0 0 8 31 249 67 0 251 246 252 0 +.2 0 0 0 1 0 0 0 1 .025 16 251 49 0 ?253 245
 248 249 0 0 8 30 252 66 0 245 249 254 0 +.04330127018922195 0 -.025 -1 0 221408
7476103445e-32 16 245 45 0 ?214 243 251 252 0 0 8 30 254 86 0 215 252 255 0 +.04
330127018922195 .05 -.025 0 -1 0 16 215 518 0 ?169 256 243 254 0 0 8 30 255 87 0
 256 254 257 0 +.2 .05 -.025 0 -1 0 16 256 224 0 ?193 258 215 255 0 0 8 30 257 8
8 0 258 255 259 0 +.2 .05 .025 0 -1 0 16 258 239 0 ?196 260 256 257 0 0 8 30 259
 89 0 260 257 261 0 +.04330127018922195 .05 .025 0 -1 0 16 260 504 0 ?199 226 25
8 259 0 0 8 31 261 217 0 229 259 262 0 +.2 .025 0 0 1 0 0 0 1 .015 16 229 290 0
 ?263 224 227 261 0 0 8 31 262 508 0 226 261 264 0 -.04166666666666705 .025 .025
 2214087476103445e-32 0 -1 -1 0 -2214087476103445e-32 .025 16 226 506 0 ?185 172
 260 262 0 0 8 38 255 264 522 0 172 262 265 0 +22 159 266 267 268 16 172 520 0 ?
166 178 226 264 0 0 8 38 265 527 0 178 264 161 0 +22 159 269 270 271 51 159 93 0
 272 273 22 274 -0 .05 0 0 -1 0 .05 0 0 -1 40 255 2 266 0 1 2 .00011019461633727
82 .070201283843478 ??.0416666666666668 .05 -.02763853991962815 .043301270189221
95 .0499465041904482 -.025 41 255 1 267 L.0416666666666668 .05 -.027638539919628
15 41 1 268 L.04330127018922195 .0499465041904482 -.025 14 272 85 275 ?276 277 1
68 21 159 -0 0 276 277 163 50 273 92 0 276 278 159 0 +.04330127018922195 .05 .02
5 2214087476103445e-32 0 -1 -1 0 -2214087476103445e-32 141 255 274 264 279 279 1
59 141 279 265 274 274 159 14 276 83 280 ?211 272 281 21 273 -0 0 211 272 163 51
 278 91 0 156 282 273 0 -.2 .05 0 0 -1 0 .025 0 0 -1 14 156 246 283 ?284 0 285 2
1 278 -0 0 284 0 163 50 282 90 0 211 286 278 0 +.04330127018922195 .05 -.025 221
4087476103445e-32 0 1 1 0 -2214087476103445e-32 14 211 79 287 ?288 276 207 21 28
2 -0 0 288 276 163 50 286 65 0 277 289 282 0 +0 0 0 0 1 0 0 0 1 14 277 149 290 ?
272 291 292 21 286 -0 0 272 291 163 50 289 2 0 291 293 286 0 +0 .05 0 0 1 0 0 0
 1 14 291 155 294 ?277 284 295 21 289 +0 0 277 284 163 51 293 139 0 288 296 289
 0 -0 .05 0 0 -1 0 .02 0 0 -1 14 288 126 297 ?220 211 298 21 293 +0 0 220 211 16
3 51 296 177 0 284 299 293 0 -.2 .05 0 0 -1 0 .015 0 0 -1 14 284 218 300 ?291 15
6 301 21 296 +0 0 291 156 163 50 299 445 0 220 0 296 0 +0 .025 0 0 1 0 0 0 1 14
 220 370 302 ?158 288 303 21 299 +0 0 158 288 163 81 1 302 674 89 220 304 0 297
 305 306 14 158 548 305 ?0 220 216 21 22 +0 0 0 220 163 15 303 375 0 307 220 218
 13 163 29 0 0 0 0 0 0 25 156 17 307 0 303 307 307 0 263 229 0 0 -17 263 0 308 2
63 263 0 307 229 0 0 +15 308 215 0 263 284 0 81 1 305 675 89 158 309 0 302 0 310
 81 1 309 664 101 158 0 305 304 0 311 83 3 310 .831372549019608 .670588235294118
 .1294117647058822 81 1 304 659 101 220 0 302 312 309 313 82 1 311 -1314979684 8
1 1 312 657 101 284 0 300 314 304 315 82 1 313 -1864236900 81 1 300 667 89 284 3
12 0 283 294 316 81 1 314 655 101 288 0 297 317 312 318 82 1 315 -1871183718 81
 1 297 673 89 288 314 0 287 302 319 81 1 317 653 101 291 0 294 320 314 321 82 1
 318 1598423184 81 1 294 668 89 291 317 0 300 290 322 81 1 320 651 101 277 0 290
 323 317 324 82 1 321 1617756316 81 1 290 669 89 277 320 0 294 275 325 81 1 323
 649 101 211 0 287 326 320 327 82 1 324 1617232016 81 1 287 672 89 211 323 0 280
 297 328 81 1 326 647 101 156 0 283 329 323 330 82 1 327 1608646812 81 1 283 666
 89 156 326 0 0 300 331 81 1 329 645 101 276 0 280 332 326 333 82 1 330 -1861156
710 81 1 280 671 89 276 329 0 275 287 334 81 1 332 643 101 272 0 275 0 329 335 8
2 1 333 1609171100 81 1 275 670 89 272 332 0 290 280 336 82 1 335 1609433244 83
 3 336 .831372549019608 .670588235294118 .1294117647058822 83 3 334 .83137254901
9608 .670588235294118 .1294117647058822 83 3 331 .831372549019608 .6705882352941
18 .1294117647058822 83 3 328 .831372549019608 .670588235294118 .129411764705882
2 83 3 325 .831372549019608 .670588235294118 .1294117647058822 83 3 322 .8313725
49019608 .670588235294118 .1294117647058822 83 3 319 .831372549019608 .670588235
294118 .1294117647058822 83 3 316 .831372549019608 .670588235294118 .12941176470
58822 83 3 306 .831372549019608 .670588235294118 .1294117647058822 15 301 168 0
 337 284 308 17 337 0 301 337 337 0 235 233 0 0 -17 235 0 338 235 235 0 337 233
 0 0 +15 338 147 0 235 277 0 15 298 129 0 239 288 339 17 239 0 298 239 239 0 340
 237 0 0 +15 339 130 0 341 288 0 17 341 0 339 341 341 0 242 236 0 0 -17 242 0 34
2 242 242 0 341 236 0 0 +15 342 109 0 242 277 338 17 340 0 343 340 340 0 239 237
 0 0 -15 343 114 0 340 291 0 15 295 266 0 179 291 343 17 179 0 295 180 180 167 1
70 243 0 344 +17 180 0 295 179 179 175 344 165 0 170 +17 170 0 168 166 174 175 1
79 243 0 171 -17 344 0 216 177 171 167 180 165 0 0 -17 177 0 216 205 344 181 174
 178 0 0 -17 171 0 216 344 209 175 166 172 0 0 -16 165 530 0 ?180 26 178 161 0 0
 8 16 178 525 0 ?174 165 172 265 0 0 8 30 161 532 0 165 265 23 0 -.0416666666666
668 .05 -.025 499600361081321e-29 0 1 15 168 84 0 176 272 0 17 176 0 168 174 247
 181 199 260 0 177 -17 247 0 168 176 169 197 345 240 0 0 +17 199 0 281 250 185 1
97 176 260 0 346 +15 281 82 0 222 276 0 17 250 0 281 347 199 194 346 248 0 348 +
17 185 0 281 199 222 181 205 226 0 176 +17 346 0 292 345 348 197 250 248 0 247 -
15 292 44 0 345 277 342 17 345 0 292 349 346 189 247 240 0 0 -17 348 0 292 346 3
49 194 253 251 0 0 -17 349 0 292 348 345 191 214 245 0 0 -17 253 0 285 213 196 1
91 348 251 0 349 +15 285 245 0 223 156 0 17 213 0 285 223 253 186 193 256 0 0 -1
7 196 0 285 253 223 194 347 258 0 250 +17 223 0 285 196 213 200 188 224 0 347 -1
7 347 0 281 222 250 200 196 258 0 0 -17 222 0 281 185 347 203 202 227 0 0 -17 20
2 0 218 188 219 200 222 227 0 223 +17 193 0 207 214 208 191 213 256 0 253 +17 21
4 0 207 173 193 189 349 245 0 345 +17 169 0 168 247 166 189 173 215 0 214 +40 2
 269 0 1 2 .000110194616337238 .0702012838434669 ??.04330127018922195 .049946504
1904482 .025 .04166666666666705 .05 .02763853991962775 41 1 270 L.04330127018922
195 .0499465041904482 .025 41 1 271 L.04166666666666705 .05 .02763853991962775 1
9 157 95 0 8 0 25 21 S0 141 160 264 350 350 22 141 350 265 160 160 22 74 20 155
 9 0 0 351 352 309 353 354 355 153 305 18 0 0 0 0 0 0 0 0 0 0 0 81 2 351 106 128
 8 0 352 0 0 0 356 81 2 352 203 130 8 351 353 0 0 0 357 81 2 353 501 134 8 352 3
54 0 0 0 0 81 1 354 580 132 8 353 355 0 0 358 81 2 355 591 135 8 354 153 0 0 0 3
59 81 2 153 642 137 8 355 18 0 0 0 360 82 1 360 105 82 1 359 1 82 1 358 876411 8
2 1 357 81 82 1 356 129 84 5 154 Link181 1 6 274 37 3 361 0 0 0 362 70 7 0 4 T3
 0 0 9 20 1 363 363 13 9 94 0 3 0 364 0 0 365 0 51 10 93 0 364 366 0 0 -0 .025 0
 0 -1 0 .025 0 0 -1 31 11 139 0 14 367 0 0 -0 0 0 0 1 0 0 0 1 .015 29 12 70 0 36
8 369 0 .015 0 .02 19 13 28 0 3 365 0 370 V0 16 14 136 0 ?371 0 372 11 0 0 3 18
 15 25 0 373 0 374 375 ?3 17 373 0 376 377 378 15 379 380 0 381 +18 374 22 0 378
 15 382 383 ?3 29 375 27 0 15 383 384 .015 .025 .02 29 383 24 0 374 385 375 .015
 .025 .1442 29 384 73 0 386 375 387 -.015 0 .02 18 386 64 0 388 389 0 384 ?3 29
 387 72 0 389 384 369 -.015 0 .1442 18 389 63 0 390 391 386 387 ?3 29 369 71 0 3
91 387 12 .015 0 .1442 18 391 62 0 392 368 389 369 ?3 17 392 0 393 394 395 391 3
96 397 0 398 +18 368 61 0 399 400 391 12 ?3 17 399 0 401 381 398 368 402 403 0 4
04 +18 400 16 0 405 382 368 406 ?3 17 405 0 407 408 409 400 410 411 0 377 -18 38
2 19 0 410 374 400 385 ?3 29 406 18 0 400 0 385 -.015 .025 .02 29 385 21 0 382 4
06 383 -.015 .025 .1442 17 410 0 376 378 377 382 405 411 0 409 +15 376 3 0 377 4
12 0 17 378 0 376 373 410 374 413 414 0 394 +17 377 0 376 410 373 400 415 416 0
 417 +16 411 7 0 ?410 414 416 418 0 0 3 17 409 0 407 405 390 382 395 419 0 413 -
15 407 82 0 390 420 0 17 390 0 407 409 408 389 388 421 0 395 +17 395 0 393 392 4
13 389 409 419 0 396 +16 419 76 0 ?395 372 422 423 0 0 3 17 413 0 393 395 394 38
2 378 414 0 0 -15 393 80 0 392 424 0 17 394 0 393 413 392 374 398 422 0 379 -16
 414 10 0 ?378 380 411 425 0 0 3 16 380 13 0 ?373 426 414 427 0 0 3 31 425 11 0
 414 418 427 0 +1765940684370485e-32 .025 .1442 0 1 0 0 0 1 .015 30 418 8 0 411
 428 425 0 +-.015 .025 .02 1117374219630794e-31 0 1 30 427 14 0 380 425 429 0 +.
015 .025 .02 -1396717774538492e-31 0 -1 31 429 69 0 430 427 431 0 +0 0 0 0 1 0 0
 0 1 .025 16 430 57 0 ?432 421 433 429 0 0 3 30 431 68 0 421 429 434 0 +-.015 0
 .02 1117374219630794e-31 0 1 16 421 53 0 ?390 397 430 431 0 0 3 31 434 67 0 397
 431 435 0 +1765940684370485e-32 0 .1442 0 1 0 0 0 1 .015 16 397 49 0 ?392 403 4
21 434 0 0 3 30 435 66 0 403 434 436 0 +.015 0 .02 -1396717774538492e-31 0 -1 16
 403 45 0 ?399 416 397 435 0 0 3 30 436 86 0 426 435 437 0 +.015 .025 .02 0 -1 0
 16 426 74 0 ?404 422 380 436 0 0 3 30 437 87 0 422 436 423 0 +.015 .025 .1442 0
 -1 0 16 422 75 0 ?398 419 426 437 0 0 3 30 423 88 0 419 437 367 0 +-.015 .025 .
1442 0 -1 0 30 367 89 0 372 423 11 0 +-.015 .025 .02 0 -1 0 16 372 77 0 ?408 14
 419 367 0 0 3 17 408 0 407 390 405 386 417 372 0 432 +17 417 0 438 415 432 400
 408 372 0 0 -17 432 0 438 417 404 386 439 430 0 0 +15 438 84 0 432 364 0 17 404
 0 438 432 415 368 381 426 0 439 +17 439 0 440 402 388 368 432 430 0 0 -15 440 4
4 0 439 441 0 17 402 0 440 396 439 391 399 403 0 0 -17 388 0 440 439 396 386 390
 421 0 408 -17 396 0 440 388 402 389 392 397 0 0 -14 441 43 442 ?443 412 444 9 4
45 -0 0 443 412 370 81 1 442 269 89 441 446 0 447 448 449 14 443 149 448 ?450 44
1 451 9 452 -0 0 450 441 370 14 412 1 447 ?441 453 454 9 455 +0 0 441 453 370 15
 444 138 0 456 441 440 50 445 65 0 441 455 457 0 +0 0 0 0 1 0 0 0 1 13 370 29 0
 0 0 0 0 0 13 364 14 364 85 458 ?420 0 438 9 10 -0 0 420 0 370 81 1 458 264 89 3
64 459 0 0 460 461 14 420 83 460 ?424 364 407 9 366 -0 0 424 364 370 81 1 460 26
5 89 420 462 0 458 463 464 14 424 81 463 ?453 420 393 9 465 -0 0 453 420 370 50
 366 92 0 420 465 10 0 +-.015 .025 .02 1 0 -1117374219630794e-31 -11173742196307
94e-31 0 -1 51 465 91 0 424 457 366 0 -1765940684370485e-32 .025 .1442 0 -1 0 .0
15 0 0 -1 50 457 90 0 453 445 465 0 +.015 .025 .02 -1 0 1396717774538492e-31 139
6717774538492e-31 0 1 14 453 79 466 ?412 424 401 9 457 -0 0 412 424 370 81 1 466
 267 89 453 467 0 463 447 468 15 401 78 0 399 453 0 81 1 467 256 101 453 0 466 4
69 470 471 81 1 463 266 89 424 469 0 460 466 472 81 1 447 268 89 412 473 0 466 4
42 474 83 3 468 .537254901960784 .3490196078431375 .3372549019607845 81 1 473 24
8 101 412 0 447 475 459 476 83 3 474 .537254901960784 .3490196078431375 .3372549
019607845 81 1 475 246 101 443 0 448 446 473 477 81 1 459 250 101 364 0 458 473
 462 478 82 1 476 1681719454 81 1 462 252 101 420 0 460 459 469 479 82 1 478 168
9059432 81 1 469 254 101 424 0 463 462 467 480 82 1 479 1688797288 82 1 480 1688
535144 81 1 448 270 89 443 475 0 442 481 482 81 1 446 244 101 441 0 442 0 475 48
3 82 1 477 1113653404 82 1 483 1687355548 81 1 481 271 89 450 470 0 448 484 485
 83 3 482 .537254901960784 .3490196078431375 .3372549019607845 14 450 154 481 ?4
86 443 487 9 488 +0 0 486 443 370 81 1 470 258 101 450 0 481 467 489 490 81 1 48
4 272 89 486 489 0 481 491 492 83 3 485 .537254901960784 .3490196078431375 .3372
549019607845 14 486 195 484 ?493 450 494 9 495 -0 0 493 450 370 81 1 489 260 101
 486 0 484 470 496 497 81 1 491 273 89 493 496 0 484 0 498 83 3 492 .66666666666
6667 .698039215686275 .768627450980392 14 493 200 491 ?0 486 499 9 500 +0 0 0 48
6 370 81 1 496 262 101 493 0 491 489 0 501 83 3 498 .666666666666667 .6980392156
86275 .768627450980392 82 1 501 1124794526 15 499 202 0 502 493 0 50 500 210 0 4
93 0 495 0 +1765940684370485e-32 .035 .1442 0 1 0 0 0 1 51 495 208 0 486 500 488
 0 -1765940684370485e-32 .035 .1442 0 -1 0 .01 0 0 -1 50 488 164 0 450 495 452 0
 +0 -.025 0 0 -1 0 0 0 -1 51 452 162 0 443 488 455 0 -0 -.025 0 0 1 0 .015 0 0 1
 50 455 2 0 412 452 445 0 +0 .025 0 0 1 0 0 0 1 17 502 0 499 502 502 0 503 504 0
 0 +17 503 0 494 503 503 0 502 504 0 0 -16 504 192 0 ?502 433 505 506 0 0 3 16 4
33 146 0 ?507 430 504 508 0 0 3 16 505 189 0 ?509 504 0 510 0 0 3 31 506 212 0 5
04 0 510 0 +1765940684370485e-32 .035 .1442 0 1 0 0 0 1 .01 31 510 211 0 505 506
 508 0 +1765940684370485e-32 .025 .1442 0 1 0 0 0 1 .01 31 508 166 0 433 510 428
 0 +0 -.025 0 0 -1 0 0 0 -1 .015 31 428 5 0 416 508 418 0 +0 .025 0 0 1 0 0 0 1
 .025 16 416 4 0 ?377 411 403 428 0 0 3 17 509 0 511 509 509 0 512 505 0 0 +15 5
11 199 0 509 486 0 17 512 0 454 512 512 0 509 505 0 0 -15 454 183 0 512 412 376
 17 507 0 487 507 507 0 513 433 0 0 +15 487 156 0 507 450 0 17 513 0 451 513 513
 0 507 433 0 0 -15 451 152 0 513 443 514 15 514 153 0 371 443 0 17 371 0 514 371
 371 0 456 14 0 0 +17 456 0 444 456 456 0 371 14 0 0 -15 494 198 0 503 486 511 8
2 1 497 1126760606 82 1 490 1111687324 83 3 472 .537254901960784 .34901960784313
75 .3372549019607845 82 1 471 1688273000 83 3 464 .537254901960784 .349019607843
1375 .3372549019607845 83 3 461 .537254901960784 .3490196078431375 .337254901960
7845 83 3 449 .537254901960784 .3490196078431375 .3372549019607845 17 415 0 438
 404 417 15 377 416 0 0 -17 381 0 401 379 399 15 404 426 0 415 -17 379 0 401 398
 381 374 373 380 0 0 -17 398 0 401 399 379 391 394 422 0 402 +19 365 95 0 3 0 13
 9 S0 74 20 363 9 0 0 496 515 516 517 518 519 361 491 6 0 0 0 0 0 0 0 0 0 0 0 81
 2 515 131 134 3 0 516 0 0 0 0 81 2 516 213 128 3 515 517 0 0 0 520 81 2 517 217
 130 3 516 518 0 0 0 521 81 1 518 221 132 3 517 519 0 0 522 81 2 519 232 135 3 5
18 361 0 0 0 523 81 2 361 243 137 3 519 6 0 0 0 524 82 1 524 103 82 1 523 1 82 1
 522 1008698 82 1 521 84 82 1 520 112 84 5 362 Link21 0 
